name C:/MyDriveSym/Projects/mobilecap/Data\Session20210903_0002\mocap\ForceDataProcessed\walkingTS1_forces.mot
datacolumns 19
datarows 22
range 0.00000000 0.01050000
endheader 
time	R_ground_force_vx	R_ground_force_vy	R_ground_force_vz	R_ground_force_px	R_ground_force_py	R_ground_force_pz	R_ground_torque_x	R_ground_torque_y	R_ground_torque_z	L_ground_force_vx	L_ground_force_vy	L_ground_force_vz	L_ground_force_px	L_ground_force_py	L_ground_force_pz	L_ground_torque_x	L_ground_torque_y	L_ground_torque_z	
          0.00000000	        -81.56310000	        403.18303900	         -4.76822500	          0.06745200	          0.00600000	         -0.16794000	          0.00000000	          0.58499100	          0.00000000	          0.00000000	          0.00000000	          0.00000000	          0.70343100	          0.00000000	         -0.24880100	          0.00000000	          0.00000000	          0.00000000	
          0.00050000	        -82.05284700	        404.84732400	         -4.87914800	          0.06745200	          0.00600000	         -0.16794000	          0.00000000	          0.58643700	          0.00000000	          0.00000000	          0.00000000	          0.00000000	          0.70343100	          0.00000000	         -0.24880100	          0.00000000	          0.00000000	          0.00000000	
          0.00100000	        -82.54338600	        406.51769800	         -4.99113500	          0.06745200	          0.00600000	         -0.16794000	          0.00000000	          0.58789800	          0.00000000	          0.00000000	          0.00000000	          0.00000000	          0.70343100	          0.00000000	         -0.24880100	          0.00000000	          0.00000000	          0.00000000	
          0.00150000	        -83.03465500	        408.19400600	         -5.10419000	          0.06745200	          0.00600000	         -0.16794000	          0.00000000	          0.58937600	          0.00000000	          0.00000000	          0.00000000	          0.00000000	          0.70343100	          0.00000000	         -0.24880100	          0.00000000	          0.00000000	          0.00000000	
          0.00200000	        -83.52659100	        409.87609000	         -5.21831300	          0.06769800	          0.00600000	         -0.16790900	          0.00000000	          0.59087000	          0.00000000	          0.00000000	          0.00000000	          0.00000000	          0.70343100	          0.00000000	         -0.24880100	          0.00000000	          0.00000000	          0.00000000	
          0.00250000	        -84.01913000	        411.56379000	         -5.33350400	          0.06794500	          0.00600000	         -0.16787700	          0.00000000	          0.59238100	          0.00000000	          0.00000000	          0.00000000	          0.00000000	          0.70343100	          0.00000000	         -0.24880100	          0.00000000	          0.00000000	          0.00000000	
          0.00300000	        -84.51220700	        413.25694100	         -5.44976500	          0.06819100	          0.00600000	         -0.16784500	          0.00000000	          0.59390800	          0.00000000	          0.00000000	          0.00000000	          0.00000000	          0.70343100	          0.00000000	         -0.24880100	          0.00000000	          0.00000000	          0.00000000	
          0.00350000	        -85.00575700	        414.95537600	         -5.56709700	          0.06843700	          0.00600000	         -0.16781300	          0.00000000	          0.59545200	          0.00000000	          0.00000000	          0.00000000	          0.00000000	          0.70343100	          0.00000000	         -0.24880100	          0.00000000	          0.00000000	          0.00000000	
          0.00400000	        -85.49971300	        416.65892500	         -5.68550000	          0.06868300	          0.00600000	         -0.16778100	          0.00000000	          0.59701200	          0.00000000	          0.00000000	          0.00000000	          0.00000000	          0.70343100	          0.00000000	         -0.24880100	          0.00000000	          0.00000000	          0.00000000	
          0.00450000	        -85.99401100	        418.36741600	         -5.80497500	          0.06892900	          0.00600000	         -0.16774900	          0.00000000	          0.59858900	          0.00000000	          0.00000000	          0.00000000	          0.00000000	          0.70343100	          0.00000000	         -0.24880100	          0.00000000	          0.00000000	          0.00000000	
          0.00500000	        -86.48858200	        420.08067200	         -5.92552100	          0.06917400	          0.00600000	         -0.16771700	          0.00000000	          0.60018100	          0.00000000	          0.00000000	          0.00000000	          0.00000000	          0.70343100	          0.00000000	         -0.24880100	          0.00000000	          0.00000000	          0.00000000	
          0.00550000	        -86.98335900	        421.79851600	         -6.04714000	          0.06941900	          0.00600000	         -0.16768400	          0.00000000	          0.60179100	          0.00000000	          0.00000000	          0.00000000	          0.00000000	          0.70343100	          0.00000000	         -0.24880100	          0.00000000	          0.00000000	          0.00000000	
          0.00600000	        -87.47827300	        423.52076500	         -6.16983100	          0.06966400	          0.00600000	         -0.16765200	          0.00000000	          0.60341600	          0.00000000	          0.00000000	          0.00000000	          0.00000000	          0.70343100	          0.00000000	         -0.24880100	          0.00000000	          0.00000000	          0.00000000	
          0.00650000	        -87.97325800	        425.24723500	         -6.29359300	          0.06990900	          0.00600000	         -0.16761900	          0.00000000	          0.60505800	          0.00000000	          0.00000000	          0.00000000	          0.00000000	          0.70343100	          0.00000000	         -0.24880100	          0.00000000	          0.00000000	          0.00000000	
          0.00700000	        -88.46824300	        426.97774100	         -6.41842700	          0.07015300	          0.00600000	         -0.16758600	          0.00000000	          0.60671500	          0.00000000	          0.00000000	          0.00000000	          0.00000000	          0.70343100	          0.00000000	         -0.24880100	          0.00000000	          0.00000000	          0.00000000	
          0.00750000	        -88.96315900	        428.71209400	         -6.54433200	          0.07039700	          0.00600000	         -0.16755300	          0.00000000	          0.60838900	          0.00000000	          0.00000000	          0.00000000	          0.00000000	          0.70343100	          0.00000000	         -0.24880100	          0.00000000	          0.00000000	          0.00000000	
          0.00800000	        -89.45793800	        430.45010100	         -6.67130800	          0.07064000	          0.00600000	         -0.16752000	          0.00000000	          0.61007800	          0.00000000	          0.00000000	          0.00000000	          0.00000000	          0.70343100	          0.00000000	         -0.24880100	          0.00000000	          0.00000000	          0.00000000	
          0.00850000	        -89.95250900	        432.19156900	         -6.79935300	          0.07088300	          0.00600000	         -0.16748700	          0.00000000	          0.61178300	          0.00000000	          0.00000000	          0.00000000	          0.00000000	          0.70343100	          0.00000000	         -0.24880100	          0.00000000	          0.00000000	          0.00000000	
          0.00900000	        -90.44680200	        433.93630300	         -6.92846600	          0.07112600	          0.00600000	         -0.16745400	          0.00000000	          0.61350400	          0.00000000	          0.00000000	          0.00000000	          0.00000000	          0.70343100	          0.00000000	         -0.24880100	          0.00000000	          0.00000000	          0.00000000	
          0.00950000	        -90.94074700	        435.68410500	         -7.05864800	          0.07136900	          0.00600000	         -0.16742000	          0.00000000	          0.61524000	          0.00000000	          0.00000000	          0.00000000	          0.00000000	          0.70343100	          0.00000000	         -0.24880100	          0.00000000	          0.00000000	          0.00000000	
          0.01000000	        -91.43427300	        437.43477400	         -7.18989500	          0.07161100	          0.00600000	         -0.16738700	          0.00000000	          0.61699100	          0.00000000	          0.00000000	          0.00000000	          0.00000000	          0.70343100	          0.00000000	         -0.24880100	          0.00000000	          0.00000000	          0.00000000	
          0.01050000	        -91.92731000	        439.18810900	         -7.32220700	          0.07185200	          0.00600000	         -0.16735300	          0.00000000	          0.61875600	          0.00000000	          0.00000000	          0.00000000	          0.00000000	          0.70343100	          0.00000000	         -0.24880100	          0.00000000	          0.00000000	          0.00000000	
